<?xml version="1.0" encoding="UTF-8" standalone="no"?>
<!DOCTYPE svg PUBLIC "-//W3C//DTD SVG 1.1//EN" "http://www.w3.org/Graphics/SVG/1.1/DTD/svg11.dtd">
<svg width="100%" height="100%" viewBox="0 0 260 260" version="1.1" xmlns="http://www.w3.org/2000/svg" xmlns:xlink="http://www.w3.org/1999/xlink" xml:space="preserve" xmlns:serif="http://www.serif.com/" style="fill-rule:evenodd;clip-rule:evenodd;stroke-linejoin:round;stroke-miterlimit:2;">
    <g transform="matrix(0.074119,0,0,0.104825,-6.73026e-13,-2.84217e-14)">
        <path d="M3507.87,248.031C3507.87,111.139 3350.69,0 3157.09,0L350.787,0C157.183,0 0,111.139 0,248.031L0,2232.28C0,2369.18 157.183,2480.32 350.787,2480.32L3157.09,2480.32C3350.69,2480.32 3507.87,2369.18 3507.87,2232.28L3507.87,248.031Z" style="fill:url(#_Radial1);"/>
    </g>
    <g transform="matrix(0.23131,0,0,0.231311,-26.4611,-156.862)">
        <path d="M430.516,1595.76C413.94,1584.38 400.839,1573.36 400.839,1573.36L827.125,835.012C827.125,835.012 844.672,841.52 859.166,848.469C877.436,857.226 892.569,865.763 892.569,865.763C1099.2,985.063 1170.11,1249.68 1050.81,1456.31C931.507,1662.95 666.89,1733.85 460.256,1614.55C460.256,1614.55 445.783,1606.23 430.516,1595.76ZM856.543,928.162L496.282,1552.15C668.477,1651.57 888.991,1592.48 988.408,1420.29C1087.82,1248.09 1028.74,1027.58 856.543,928.162ZM321.659,1487.36C307.172,1466.38 302.015,1456.32 302.015,1456.32C227.54,1326.96 222.078,1162.46 302.018,1024C381.958,885.54 527.146,808.023 676.415,807.839C676.415,807.839 696.568,807.787 713.348,809.394C738.628,811.816 755.435,815.078 755.435,815.078L347.771,1521.17C347.771,1521.17 338.1,1511.16 321.659,1487.36ZM633.291,882.532C524.653,895.735 423.297,958.044 364.417,1060.03C305.537,1162.01 302.255,1280.94 345.139,1381.63L633.291,882.532Z" style="fill:white;"/>
    </g>
    <defs>
        <radialGradient id="_Radial1" cx="0" cy="0" r="1" gradientUnits="userSpaceOnUse" gradientTransform="matrix(3507.87,0,0,2480.31,0,0)"><stop offset="0" style="stop-color:rgb(24,156,255);stop-opacity:1"/><stop offset="0.58" style="stop-color:rgb(19,142,235);stop-opacity:1"/><stop offset="0.8" style="stop-color:rgb(9,113,191);stop-opacity:1"/><stop offset="1" style="stop-color:rgb(0,84,147);stop-opacity:1"/></radialGradient>
    </defs>
</svg>
